<?xml version="1.0" encoding="UTF-8"?> <svg xmlns="http://www.w3.org/2000/svg" width="940" height="976" viewBox="0 0 940 976" fill="none"> <g filter="url(#filter0_di_204_246)"> <path d="M532.07 137.191C607.142 182.766 667.084 251.115 689.18 336.177C711.586 422.428 699.542 516.42 649.781 590.318C601.972 661.318 518.426 692.024 435.483 712.935C351.762 734.042 258.617 754.507 186.403 707.139C115.492 660.627 99.8963 567.495 86.094 483.76C73.6321 408.156 79.1209 332.834 113.414 264.328C151.208 188.827 202.584 114.297 283.312 89.7814C367.282 64.2816 457.04 91.6418 532.07 137.191Z" fill="url(#paint0_linear_204_246)" shape-rendering="crispEdges"></path> <path d="M532.07 137.191C607.142 182.766 667.084 251.115 689.18 336.177C711.586 422.428 699.542 516.42 649.781 590.318C601.972 661.318 518.426 692.024 435.483 712.935C351.762 734.042 258.617 754.507 186.403 707.139C115.492 660.627 99.8963 567.495 86.094 483.76C73.6321 408.156 79.1209 332.834 113.414 264.328C151.208 188.827 202.584 114.297 283.312 89.7814C367.282 64.2816 457.04 91.6418 532.07 137.191Z" fill="url(#paint1_radial_204_246)" shape-rendering="crispEdges"></path> </g> <defs> <filter id="filter0_di_204_246" x="0" y="0" width="940" height="976" filterUnits="userSpaceOnUse" color-interpolation-filters="sRGB"> <feFlood flood-opacity="0" result="BackgroundImageFix"></feFlood> <feColorMatrix in="SourceAlpha" type="matrix" values="0 0 0 0 0 0 0 0 0 0 0 0 0 0 0 0 0 0 127 0" result="hardAlpha"></feColorMatrix> <feOffset dx="20" dy="20"></feOffset> <feGaussianBlur stdDeviation="20"></feGaussianBlur> <feComposite in2="hardAlpha" operator="out"></feComposite> <feColorMatrix type="matrix" values="0 0 0 0 0 0 0 0 0 0 0 0 0 0 0 0 0 0 0.28 0"></feColorMatrix> <feBlend mode="normal" in2="BackgroundImageFix" result="effect1_dropShadow_204_246"></feBlend> <feBlend mode="normal" in="SourceGraphic" in2="effect1_dropShadow_204_246" result="shape"></feBlend> <feColorMatrix in="SourceAlpha" type="matrix" values="0 0 0 0 0 0 0 0 0 0 0 0 0 0 0 0 0 0 127 0" result="hardAlpha"></feColorMatrix> <feOffset dy="-7"></feOffset> <feGaussianBlur stdDeviation="9.5"></feGaussianBlur> <feComposite in2="hardAlpha" operator="arithmetic" k2="-1" k3="1"></feComposite> <feColorMatrix type="matrix" values="0 0 0 0 0 0 0 0 0 0 0 0 0 0 0 0 0 0 0.25 0"></feColorMatrix> <feBlend mode="normal" in2="shape" result="effect2_innerShadow_204_246"></feBlend> </filter> <linearGradient id="paint0_linear_204_246" x1="390" y1="80" x2="390" y2="736" gradientUnits="userSpaceOnUse"> <stop stop-color="#7FA0B8" stop-opacity="0.42"></stop> <stop offset="0.732292" stop-color="#F2EDFF" stop-opacity="0.03"></stop> <stop offset="1" stop-color="#0795FC" stop-opacity="0.09"></stop> </linearGradient> <radialGradient id="paint1_radial_204_246" cx="0" cy="0" r="1" gradientUnits="userSpaceOnUse" gradientTransform="translate(304.888 215.763) rotate(116.956) scale(106.039 94.4123)"> <stop stop-color="white"></stop> <stop offset="1" stop-color="white" stop-opacity="0"></stop> </radialGradient> </defs> </svg> 